<svg xmlns="http://www.w3.org/2000/svg" viewBox="0 0 373.75 529.3"><defs><style>.cls-1{fill:none;stroke:#000;stroke-miterlimit:10;stroke-width:3px;}</style></defs><title>web3lobsterwithETH</title><g id="Layer_2" data-name="Layer 2"><polygon class="cls-1" points="302.88 335.59 241.7 337.44 241.93 331.02 308.88 323.59 352.88 338.59 370.88 351.59 364.88 331.59 305.88 311.59 242.24 322.65 242.53 314.8 303.88 301.59 355.88 302.59 369.88 306.59 357.88 290.59 299.88 290.59 247.26 303.74 299.88 281.59 301.88 272.59 342.88 242.59 341.88 228.59 357.88 190.59 352.88 123.59 302.88 67.59 294.88 152.59 274.88 84.59 261.88 132.59 269.88 167.59 265.88 179.59 281.88 225.59 278.88 243.59 271.88 240.59 237.88 285.59 233.88 261.59 215.46 225.6 225.88 217.59 225.88 206.59 222.58 204.31 212.88 197.59 199.88 205.59 199.88 211.53 194.88 208.59 186.88 173.59 178.88 208.59 173.88 211.53 173.88 205.59 160.88 197.59 151.17 204.31 147.88 206.59 147.88 217.59 158.29 225.6 139.88 261.59 135.88 285.59 101.88 240.59 94.88 243.59 91.88 225.59 107.88 179.59 103.88 167.59 111.88 132.59 98.88 84.59 78.88 152.59 70.88 67.59 20.88 123.59 15.88 190.59 31.88 228.59 30.88 242.59 71.88 272.59 73.88 281.59 126.49 303.74 73.88 290.59 15.88 290.59 3.88 306.59 17.88 302.59 69.88 301.59 131.22 314.8 131.51 322.65 67.88 311.59 8.88 331.59 2.88 351.59 20.88 338.59 64.88 323.59 131.82 331.02 132.06 337.44 70.88 335.59 16.88 373.59 15.88 397.59 27.88 381.59 70.88 347.59 132.43 347.59 132.69 354.59 82.88 354.59 59.88 395.59 68.88 412.59 70.88 397.59 87.88 366.59 136.23 362.94 140.88 367.59 136.88 390.59 140.88 399.59 136.88 424.59 144.88 431.59 141.88 449.59 149.88 459.59 113.88 479.59 113.88 511.59 134.88 525.59 145.88 519.59 161.88 527.59 175.88 521.59 186.88 527.59 197.88 521.59 211.88 527.59 227.88 519.59 238.88 525.59 259.88 511.59 259.88 479.59 223.88 459.59 231.88 449.59 228.88 431.59 236.88 424.59 232.88 399.59 236.88 390.59 232.88 367.59 237.53 362.94 285.88 366.59 302.88 397.59 304.88 412.59 313.88 395.59 290.88 354.59 241.06 354.59 241.32 347.59 302.88 347.59 345.88 381.59 357.88 397.59 356.88 373.59 302.88 335.59"/><path class="cls-1" d="M330.65,195.18c-10.47,9-22.95,17.82-33.42,26.8,7.81,2.69,17.81,6.22,25.61,8.91" transform="translate(-218.97 -63.3)"/><polyline class="cls-1" points="20.88 123.59 78.27 158.67 15.88 190.59"/><path class="cls-1" d="M323.33,232.37" transform="translate(-218.97 -63.3)"/><path class="cls-1" d="M236,255.3" transform="translate(-218.97 -63.3)"/><path class="cls-1" d="M326.84,242.89" transform="translate(-218.97 -63.3)"/><path class="cls-1" d="M236,255.3" transform="translate(-218.97 -63.3)"/><path class="cls-1" d="M297.23,222" transform="translate(-218.97 -63.3)"/><polyline class="cls-1" points="107.88 179.59 20.07 191.59 89.56 226.23 30.88 242.59"/><line class="cls-1" x1="94.88" y1="243.59" x2="72.33" y2="271.04"/><line class="cls-1" x1="73.88" y1="281.59" x2="101.88" y2="240.59"/><polyline class="cls-1" points="158.29 225.6 174.14 218.94 173.88 211.53"/><line class="cls-1" x1="15.88" y1="290.59" x2="17.88" y2="302.59"/><line class="cls-1" x1="73.88" y1="290.59" x2="69.88" y2="301.59"/><polyline class="cls-1" points="136.23 362.94 132.57 351.43 131.82 331.02 132.01 315.72 126.49 303.74 135.9 286.89"/><line class="cls-1" x1="67.88" y1="311.59" x2="64.88" y2="323.59"/><line class="cls-1" x1="8.88" y1="331.59" x2="20.88" y2="338.59"/><line class="cls-1" x1="16.88" y1="373.59" x2="27.88" y2="381.59"/><line class="cls-1" x1="70.88" y1="335.59" x2="70.88" y2="347.59"/><line class="cls-1" x1="82.88" y1="354.59" x2="87.88" y2="366.59"/><line class="cls-1" x1="59.88" y1="395.59" x2="70.88" y2="397.59"/><line class="cls-1" x1="126.49" y1="302.35" x2="101.88" y2="243.13"/><polyline class="cls-1" points="232.88 367.59 186.88 352.57 140.88 367.59"/><polyline class="cls-1" points="232.88 399.59 186.88 386.87 140.88 399.59"/><polyline class="cls-1" points="144.88 431.59 186.88 419.74 228.88 431.59"/><polyline class="cls-1" points="197.88 521.59 223.88 459.59 186.88 452.35 149.88 459.59 175.88 521.59"/><polyline class="cls-1" points="149.88 459.59 135.4 490.89 145.88 519.59"/><path class="cls-1" d="M358.84,324.89" transform="translate(-218.97 -63.3)"/><path class="cls-1" d="M358.84,324.89" transform="translate(-218.97 -63.3)"/><polyline class="cls-1" points="132.01 315.72 186.9 303.59 242.53 314.8"/><path class="cls-1" d="M405.86,416.87" transform="translate(-218.97 -63.3)"/><path class="cls-1" d="M413.84,271.89" transform="translate(-218.97 -63.3)"/><path class="cls-1" d="M481.06,196.18c10.47,9,22.94,17.82,33.41,26.8-7.8,2.69-17.8,6.22-25.61,8.91" transform="translate(-218.97 -63.3)"/><polyline class="cls-1" points="352.9 124.59 295.5 159.67 357.9 191.59"/><path class="cls-1" d="M488.37,233.37" transform="translate(-218.97 -63.3)"/><path class="cls-1" d="M575.71,256.3" transform="translate(-218.97 -63.3)"/><path class="cls-1" d="M484.86,243.89" transform="translate(-218.97 -63.3)"/><path class="cls-1" d="M575.71,256.3" transform="translate(-218.97 -63.3)"/><path class="cls-1" d="M514.47,223" transform="translate(-218.97 -63.3)"/><polyline class="cls-1" points="265.9 180.59 353.7 192.59 284.21 227.23 342.9 243.59"/><line class="cls-1" x1="278.9" y1="244.59" x2="301.44" y2="272.04"/><line class="cls-1" x1="299.9" y1="282.59" x2="271.9" y2="241.59"/><polyline class="cls-1" points="215.48 226.6 199.63 219.94 199.9 212.53"/><line class="cls-1" x1="357.9" y1="291.59" x2="355.9" y2="303.59"/><line class="cls-1" x1="299.9" y1="291.59" x2="303.9" y2="302.59"/><polyline class="cls-1" points="237.54 363.94 241.2 352.43 241.95 332.02 241.76 316.72 247.28 304.74 237.87 287.89"/><line class="cls-1" x1="305.9" y1="312.59" x2="308.9" y2="324.59"/><line class="cls-1" x1="364.9" y1="332.59" x2="352.9" y2="339.59"/><line class="cls-1" x1="356.9" y1="374.59" x2="345.9" y2="382.59"/><line class="cls-1" x1="302.9" y1="336.59" x2="302.9" y2="348.59"/><line class="cls-1" x1="290.9" y1="355.59" x2="285.9" y2="367.59"/><line class="cls-1" x1="313.9" y1="396.59" x2="302.9" y2="398.59"/><line class="cls-1" x1="247.28" y1="303.35" x2="271.9" y2="244.13"/><polyline class="cls-1" points="223.9 460.59 238.37 491.89 227.9 520.59"/><path class="cls-1" d="M452.86,325.89" transform="translate(-218.97 -63.3)"/><path class="cls-1" d="M452.86,325.89" transform="translate(-218.97 -63.3)"/><path class="cls-1" d="M405.86,416.87" transform="translate(-218.97 -63.3)"/><path class="cls-1" d="M460.73,380" transform="translate(-218.97 -63.3)"/><path class="cls-1" d="M405.86,416.87" transform="translate(-218.97 -63.3)"/><path class="cls-1" d="M434.45,289.9" transform="translate(-218.97 -63.3)"/><path class="cls-1" d="M397.86,272.89" transform="translate(-218.97 -63.3)"/><polyline class="cls-1" points="174.14 218.94 187.27 257.32 199.63 219.94"/><path class="cls-1" d="M405.84,236.89" transform="translate(-218.97 -63.3)"/><path class="cls-1" d="M406.24,320.62" transform="translate(-218.97 -63.3)"/><path class="cls-1" d="M358.84,324.89" transform="translate(-218.97 -63.3)"/><path class="cls-1" d="M405.84,415.87" transform="translate(-218.97 -63.3)"/><path class="cls-1" d="M405.86,366.89" transform="translate(-218.97 -63.3)"/><path class="cls-1" d="M358.84,324.89" transform="translate(-218.97 -63.3)"/><path class="cls-1" d="M405.86,366.89" transform="translate(-218.97 -63.3)"/><path class="cls-1" d="M452.84,324.89" transform="translate(-218.97 -63.3)"/><line class="cls-1" x1="187.27" y1="257.32" x2="186.88" y2="452.35"/><path class="cls-1" d="M358.84,324.89" transform="translate(-218.97 -63.3)"/></g><g id="Layer_4" data-name="Layer 4"><polygon class="cls-1" points="186.66 2.87 145.09 71 186.68 97.66 228.66 71 186.66 2.87"/><polygon class="cls-1" points="186.66 107.4 145.09 81.48 186.66 138.51 228.22 81.48 186.66 107.4"/></g></svg>