<svg xmlns="http://www.w3.org/2000/svg" viewBox="0 0 373.75 546.67"><defs><style>.cls-1{fill:none;stroke:#000;stroke-miterlimit:10;stroke-width:3px;}</style></defs><title>web3lobsterwithETH2</title><g id="Layer_2" data-name="Layer 2"><polyline class="cls-1" points="232.88 416.96 236.88 407.96 232.88 384.96 237.53 380.31 285.88 383.96 302.88 414.96 304.88 429.96 313.88 412.96 290.88 371.96 241.06 371.96 241.32 364.96 302.88 364.96 345.88 398.96 357.88 414.96 356.88 390.96 302.88 352.96 241.7 354.81 241.93 348.4 308.88 340.96 352.88 355.96 370.88 368.96 364.88 348.96 305.88 328.96 242.24 340.03 242.53 332.17 303.88 318.96 355.88 319.96 369.88 323.96 357.88 307.96 299.88 307.96 247.26 321.11 299.88 298.96 301.88 289.96 342.88 259.96 341.88 245.96 357.88 207.96 352.88 140.96 302.88 84.96 294.88 169.96 274.88 101.96 261.88 149.96 269.88 184.96 265.88 196.96 281.88 242.96 278.88 260.96 271.88 257.96 237.88 302.96 233.88 278.96 215.46 242.97 225.88 234.96 225.88 223.96 222.58 221.68 212.88 214.96 199.88 222.96 199.88 228.9 194.88 225.96 186.89 165.47 178.88 225.96 173.88 228.9 173.88 222.96 160.88 214.96 151.17 221.68 147.88 223.96 147.88 234.96 158.29 242.97 139.88 278.96 135.88 302.96 101.88 257.96 94.88 260.96 91.88 242.96 107.88 196.96 103.88 184.96 111.88 149.96 98.88 101.96 78.88 169.96 70.88 84.96 20.88 140.96 15.88 207.96 31.88 245.96 30.88 259.96 71.88 289.96 73.88 298.96 126.49 321.11 73.88 307.96 15.88 307.96 3.88 323.96 17.88 319.96 69.88 318.96 131.22 332.17 131.51 340.03 67.88 328.96 8.88 348.96 2.88 368.96 20.88 355.96 64.88 340.96 131.82 348.4 132.06 354.81 70.88 352.96 16.88 390.96 15.88 414.96 27.88 398.96 70.88 364.96 132.43 364.96 132.69 371.96 82.88 371.96 59.88 412.96 68.88 429.96 70.88 414.96 87.88 383.96 136.23 380.31 140.88 384.96 136.88 407.96 140.88 416.96"/><polyline class="cls-1" points="228.88 448.96 236.88 441.96 232.88 416.96"/><polyline class="cls-1" points="144.88 448.96 141.88 466.96 149.88 476.96 113.88 496.96 113.88 528.96 134.88 542.96 145.88 536.96 161.88 544.96 175.88 538.96 186.88 544.96 197.88 538.96 211.88 544.96 227.88 536.96 238.88 542.96 259.88 528.96 259.88 496.96 223.88 476.96 231.88 466.96 228.88 448.96"/><polyline class="cls-1" points="140.88 416.96 136.88 441.96 144.88 448.96"/><path class="cls-1" d="M330.65,195.18c-10.47,9-22.95,17.82-33.42,26.8,7.81,2.69,17.81,6.22,25.61,8.91" transform="translate(-218.97 -45.93)"/><polyline class="cls-1" points="20.88 140.96 78.27 176.05 15.88 207.96"/><path class="cls-1" d="M323.33,232.37" transform="translate(-218.97 -45.93)"/><path class="cls-1" d="M236,255.3" transform="translate(-218.97 -45.93)"/><path class="cls-1" d="M326.84,242.89" transform="translate(-218.97 -45.93)"/><path class="cls-1" d="M236,255.3" transform="translate(-218.97 -45.93)"/><path class="cls-1" d="M297.23,222" transform="translate(-218.97 -45.93)"/><polyline class="cls-1" points="107.88 196.96 20.07 208.96 89.56 243.6 30.88 259.96"/><line class="cls-1" x1="94.88" y1="260.96" x2="72.33" y2="288.42"/><line class="cls-1" x1="73.88" y1="298.96" x2="101.88" y2="257.96"/><polyline class="cls-1" points="158.29 242.97 174.14 236.31 173.88 228.9"/><line class="cls-1" x1="15.88" y1="307.96" x2="17.88" y2="319.96"/><line class="cls-1" x1="73.88" y1="307.96" x2="69.88" y2="318.96"/><polyline class="cls-1" points="136.23 380.31 132.57 368.8 131.82 348.4 132.01 333.09 126.49 321.11 135.9 304.27"/><line class="cls-1" x1="67.88" y1="328.96" x2="64.88" y2="340.96"/><line class="cls-1" x1="8.88" y1="348.96" x2="20.88" y2="355.96"/><line class="cls-1" x1="16.88" y1="390.96" x2="27.88" y2="398.96"/><line class="cls-1" x1="70.88" y1="352.96" x2="70.88" y2="364.96"/><line class="cls-1" x1="82.88" y1="371.96" x2="87.88" y2="383.96"/><line class="cls-1" x1="59.88" y1="412.96" x2="70.88" y2="414.96"/><line class="cls-1" x1="126.49" y1="319.72" x2="101.88" y2="260.5"/><polyline class="cls-1" points="232.88 384.96 186.88 369.94 140.88 384.96"/><polyline class="cls-1" points="232.88 416.96 186.88 404.24 140.88 416.96"/><polyline class="cls-1" points="144.88 448.96 186.88 437.11 228.88 448.96"/><polyline class="cls-1" points="197.88 538.96 223.88 476.96 186.88 469.72 149.88 476.96 175.88 538.96"/><polyline class="cls-1" points="149.88 476.96 135.4 508.26 145.88 536.96"/><path class="cls-1" d="M358.84,324.89" transform="translate(-218.97 -45.93)"/><path class="cls-1" d="M358.84,324.89" transform="translate(-218.97 -45.93)"/><polyline class="cls-1" points="132.01 333.09 186.9 320.96 242.53 332.17"/><path class="cls-1" d="M405.86,416.87" transform="translate(-218.97 -45.93)"/><path class="cls-1" d="M413.84,271.89" transform="translate(-218.97 -45.93)"/><path class="cls-1" d="M481.06,196.18c10.47,9,22.94,17.82,33.41,26.8-7.8,2.69-17.8,6.22-25.61,8.91" transform="translate(-218.97 -45.93)"/><polyline class="cls-1" points="352.9 141.96 295.5 177.05 357.9 208.96"/><path class="cls-1" d="M488.37,233.37" transform="translate(-218.97 -45.93)"/><path class="cls-1" d="M575.71,256.3" transform="translate(-218.97 -45.93)"/><path class="cls-1" d="M484.86,243.89" transform="translate(-218.97 -45.93)"/><path class="cls-1" d="M575.71,256.3" transform="translate(-218.97 -45.93)"/><path class="cls-1" d="M514.47,223" transform="translate(-218.97 -45.93)"/><polyline class="cls-1" points="265.9 197.96 353.7 209.96 284.21 244.6 342.9 260.96"/><line class="cls-1" x1="278.9" y1="261.96" x2="301.44" y2="289.42"/><line class="cls-1" x1="299.9" y1="299.96" x2="271.9" y2="258.96"/><polyline class="cls-1" points="215.48 243.97 199.63 237.31 199.9 229.9"/><line class="cls-1" x1="357.9" y1="308.96" x2="355.9" y2="320.96"/><line class="cls-1" x1="299.9" y1="308.96" x2="303.9" y2="319.96"/><polyline class="cls-1" points="237.54 381.31 241.2 369.8 241.95 349.4 241.76 334.09 247.28 322.11 237.87 305.27"/><line class="cls-1" x1="305.9" y1="329.96" x2="308.9" y2="341.96"/><line class="cls-1" x1="364.9" y1="349.96" x2="352.9" y2="356.96"/><line class="cls-1" x1="356.9" y1="391.96" x2="345.9" y2="399.96"/><line class="cls-1" x1="302.9" y1="353.96" x2="302.9" y2="365.96"/><line class="cls-1" x1="290.9" y1="372.96" x2="285.9" y2="384.96"/><line class="cls-1" x1="313.9" y1="413.96" x2="302.9" y2="415.96"/><line class="cls-1" x1="247.28" y1="320.72" x2="271.9" y2="261.5"/><polyline class="cls-1" points="223.9 477.96 238.37 509.26 227.9 537.96"/><path class="cls-1" d="M452.86,325.89" transform="translate(-218.97 -45.93)"/><path class="cls-1" d="M452.86,325.89" transform="translate(-218.97 -45.93)"/><path class="cls-1" d="M405.86,416.87" transform="translate(-218.97 -45.93)"/><path class="cls-1" d="M460.73,380" transform="translate(-218.97 -45.93)"/><path class="cls-1" d="M405.86,416.87" transform="translate(-218.97 -45.93)"/><path class="cls-1" d="M434.45,289.9" transform="translate(-218.97 -45.93)"/><path class="cls-1" d="M397.86,272.89" transform="translate(-218.97 -45.93)"/><polyline class="cls-1" points="174.14 236.31 187.27 274.69 199.63 237.31"/><path class="cls-1" d="M405.84,236.89" transform="translate(-218.97 -45.93)"/><path class="cls-1" d="M406.24,320.62" transform="translate(-218.97 -45.93)"/><path class="cls-1" d="M358.84,324.89" transform="translate(-218.97 -45.93)"/><path class="cls-1" d="M405.84,415.87" transform="translate(-218.97 -45.93)"/><path class="cls-1" d="M405.86,366.89" transform="translate(-218.97 -45.93)"/><path class="cls-1" d="M358.84,324.89" transform="translate(-218.97 -45.93)"/><path class="cls-1" d="M405.86,366.89" transform="translate(-218.97 -45.93)"/><path class="cls-1" d="M452.84,324.89" transform="translate(-218.97 -45.93)"/><line class="cls-1" x1="187.27" y1="274.69" x2="186.88" y2="469.72"/><path class="cls-1" d="M358.84,324.89" transform="translate(-218.97 -45.93)"/><path class="cls-1" d="M411.17,251.65" transform="translate(-218.97 -45.93)"/><path class="cls-1" d="M399.52,259.23" transform="translate(-218.97 -45.93)"/><path class="cls-1" d="M401.55,243.89" transform="translate(-218.97 -45.93)"/><path class="cls-1" d="M409.8,241.28" transform="translate(-218.97 -45.93)"/><path class="cls-1" d="M401.08,247.43" transform="translate(-218.97 -45.93)"/><path class="cls-1" d="M408.47,231.21" transform="translate(-218.97 -45.93)"/><path class="cls-1" d="M402.62,235.78" transform="translate(-218.97 -45.93)"/><path class="cls-1" d="M399.73,257.66" transform="translate(-218.97 -45.93)"/><path class="cls-1" d="M401.55,242.16" transform="translate(-218.97 -45.93)"/><line class="cls-1" x1="178.88" y1="225.96" x2="194.88" y2="225.96"/><line class="cls-1" x1="180.76" y1="211.73" x2="193" y2="211.73"/><line class="cls-1" x1="182.58" y1="197.96" x2="191.18" y2="197.96"/></g><g id="Layer_4" data-name="Layer 4"><polygon class="cls-1" points="186.66 2.87 147.41 67.21 186.68 92.38 226.32 67.21 186.66 2.87"/><polygon class="cls-1" points="186.66 101.58 147.41 77.1 186.66 130.96 225.91 77.1 186.66 101.58"/></g></svg>