<svg id="Layer_2" data-name="Layer 2" xmlns="http://www.w3.org/2000/svg" viewBox="0 0 373.75 465.27"><defs><style>.cls-1{fill:none;stroke:#000;stroke-miterlimit:10;stroke-width:3px;}</style></defs><title>web3lobster</title><polygon class="cls-1" points="302.88 271.56 241.7 273.42 241.93 267 308.88 259.56 352.88 274.56 370.88 287.56 364.88 267.56 305.88 247.56 242.24 258.63 242.53 250.78 303.88 237.56 355.88 238.56 369.88 242.56 357.88 226.56 299.88 226.56 247.26 239.72 299.88 217.56 301.88 208.56 342.88 178.56 341.88 164.56 357.88 126.56 352.88 59.56 302.88 3.56 294.88 88.56 274.88 20.56 261.88 68.56 269.88 103.56 265.88 115.56 281.88 161.56 278.88 179.56 271.88 176.56 237.88 221.56 233.88 197.56 215.46 161.57 225.88 153.56 225.88 142.56 222.58 140.28 212.88 133.56 199.88 141.56 199.88 147.5 194.88 144.56 186.88 109.56 178.88 144.56 173.88 147.5 173.88 141.56 160.88 133.56 151.17 140.28 147.88 142.56 147.88 153.56 158.29 161.57 139.88 197.56 135.88 221.56 101.88 176.56 94.88 179.56 91.88 161.56 107.88 115.56 103.88 103.56 111.88 68.56 98.88 20.56 78.88 88.56 70.88 3.56 20.88 59.56 15.88 126.56 31.88 164.56 30.88 178.56 71.88 208.56 73.88 217.56 126.49 239.72 73.88 226.56 15.88 226.56 3.88 242.56 17.88 238.56 69.88 237.56 131.22 250.78 131.51 258.63 67.88 247.56 8.88 267.56 2.88 287.56 20.88 274.56 64.88 259.56 131.82 267 132.06 273.42 70.88 271.56 16.88 309.56 15.88 333.56 27.88 317.56 70.88 283.56 132.43 283.56 132.69 290.56 82.88 290.56 59.88 331.56 68.88 348.56 70.88 333.56 87.88 302.56 136.23 298.92 140.88 303.56 136.88 326.56 140.88 335.56 136.88 360.56 144.88 367.56 141.88 385.56 149.88 395.56 113.88 415.56 113.88 447.56 134.88 461.56 145.88 455.56 161.88 463.56 175.88 457.56 186.88 463.56 197.88 457.56 211.88 463.56 227.88 455.56 238.88 461.56 259.88 447.56 259.88 415.56 223.88 395.56 231.88 385.56 228.88 367.56 236.88 360.56 232.88 335.56 236.88 326.56 232.88 303.56 237.53 298.92 285.88 302.56 302.88 333.56 304.88 348.56 313.88 331.56 290.88 290.56 241.06 290.56 241.32 283.56 302.88 283.56 345.88 317.56 357.88 333.56 356.88 309.56 302.88 271.56"/><path class="cls-1" d="M257.94,125.92c-10.47,9-22.95,17.82-33.42,26.8,7.8,2.69,17.81,6.22,25.61,8.91" transform="translate(-146.25 -58.07)"/><polyline class="cls-1" points="20.88 59.56 78.27 94.65 15.88 126.56"/><path class="cls-1" d="M250.62,163.1" transform="translate(-146.25 -58.07)"/><path class="cls-1" d="M163.28,186" transform="translate(-146.25 -58.07)"/><path class="cls-1" d="M254.13,173.63" transform="translate(-146.25 -58.07)"/><path class="cls-1" d="M163.28,186" transform="translate(-146.25 -58.07)"/><path class="cls-1" d="M224.52,152.72" transform="translate(-146.25 -58.07)"/><polyline class="cls-1" points="107.88 115.56 20.07 127.56 89.56 162.21 30.88 178.56"/><line class="cls-1" x1="94.88" y1="179.56" x2="72.33" y2="207.02"/><line class="cls-1" x1="73.88" y1="217.56" x2="101.88" y2="176.56"/><polyline class="cls-1" points="158.29 161.57 174.14 154.91 173.88 147.5"/><line class="cls-1" x1="15.88" y1="226.56" x2="17.88" y2="238.56"/><line class="cls-1" x1="73.88" y1="226.56" x2="69.88" y2="237.56"/><polyline class="cls-1" points="136.23 298.92 132.57 287.41 131.82 267 132.01 251.69 126.49 239.72 135.9 222.87"/><line class="cls-1" x1="67.88" y1="247.56" x2="64.88" y2="259.56"/><line class="cls-1" x1="8.88" y1="267.56" x2="20.88" y2="274.56"/><line class="cls-1" x1="16.88" y1="309.56" x2="27.88" y2="317.56"/><line class="cls-1" x1="70.88" y1="271.56" x2="70.88" y2="283.56"/><line class="cls-1" x1="82.88" y1="290.56" x2="87.88" y2="302.56"/><line class="cls-1" x1="59.88" y1="331.56" x2="70.88" y2="333.56"/><line class="cls-1" x1="126.49" y1="238.32" x2="101.88" y2="179.11"/><polyline class="cls-1" points="232.88 303.56 186.88 288.54 140.88 303.56"/><polyline class="cls-1" points="232.88 335.56 186.88 322.85 140.88 335.56"/><polyline class="cls-1" points="144.88 367.56 186.88 355.72 228.88 367.56"/><polyline class="cls-1" points="197.88 457.56 223.88 395.56 186.88 388.32 149.88 395.56 175.88 457.56"/><polyline class="cls-1" points="149.88 395.56 135.4 426.87 145.88 455.56"/><path class="cls-1" d="M286.13,255.63" transform="translate(-146.25 -58.07)"/><path class="cls-1" d="M286.13,255.63" transform="translate(-146.25 -58.07)"/><polyline class="cls-1" points="132.01 251.69 186.9 239.56 242.53 250.78"/><path class="cls-1" d="M333.15,347.61" transform="translate(-146.25 -58.07)"/><path class="cls-1" d="M341.13,202.63" transform="translate(-146.25 -58.07)"/><path class="cls-1" d="M408.34,126.92c10.47,9,23,17.82,33.42,26.8-7.81,2.69-17.81,6.22-25.61,8.91" transform="translate(-146.25 -58.07)"/><polyline class="cls-1" points="352.9 60.56 295.5 95.65 357.9 127.56"/><path class="cls-1" d="M415.66,164.1" transform="translate(-146.25 -58.07)"/><path class="cls-1" d="M503,187" transform="translate(-146.25 -58.07)"/><path class="cls-1" d="M412.15,174.63" transform="translate(-146.25 -58.07)"/><path class="cls-1" d="M503,187" transform="translate(-146.25 -58.07)"/><path class="cls-1" d="M441.76,153.72" transform="translate(-146.25 -58.07)"/><polyline class="cls-1" points="265.9 116.56 353.7 128.56 284.21 163.21 342.9 179.56"/><line class="cls-1" x1="278.9" y1="180.56" x2="301.44" y2="208.02"/><line class="cls-1" x1="299.9" y1="218.56" x2="271.9" y2="177.56"/><polyline class="cls-1" points="215.48 162.57 199.63 155.91 199.9 148.5"/><line class="cls-1" x1="357.9" y1="227.56" x2="355.9" y2="239.56"/><line class="cls-1" x1="299.9" y1="227.56" x2="303.9" y2="238.56"/><polyline class="cls-1" points="237.54 299.92 241.2 288.41 241.95 268 241.76 252.69 247.28 240.72 237.87 223.87"/><line class="cls-1" x1="305.9" y1="248.56" x2="308.9" y2="260.56"/><line class="cls-1" x1="364.9" y1="268.56" x2="352.9" y2="275.56"/><line class="cls-1" x1="356.9" y1="310.56" x2="345.9" y2="318.56"/><line class="cls-1" x1="302.9" y1="272.56" x2="302.9" y2="284.56"/><line class="cls-1" x1="290.9" y1="291.56" x2="285.9" y2="303.56"/><line class="cls-1" x1="313.9" y1="332.56" x2="302.9" y2="334.56"/><line class="cls-1" x1="247.28" y1="239.32" x2="271.9" y2="180.11"/><polyline class="cls-1" points="223.9 396.56 238.37 427.87 227.9 456.56"/><path class="cls-1" d="M380.15,256.63" transform="translate(-146.25 -58.07)"/><path class="cls-1" d="M380.15,256.63" transform="translate(-146.25 -58.07)"/><path class="cls-1" d="M333.15,347.61" transform="translate(-146.25 -58.07)"/><path class="cls-1" d="M388,310.76" transform="translate(-146.25 -58.07)"/><path class="cls-1" d="M333.15,347.61" transform="translate(-146.25 -58.07)"/><path class="cls-1" d="M361.74,220.64" transform="translate(-146.25 -58.07)"/><path class="cls-1" d="M325.15,203.63" transform="translate(-146.25 -58.07)"/><polyline class="cls-1" points="174.14 154.91 187.27 193.29 199.63 155.91"/><path class="cls-1" d="M333.13,167.63" transform="translate(-146.25 -58.07)"/><path class="cls-1" d="M333.52,251.36" transform="translate(-146.25 -58.07)"/><path class="cls-1" d="M286.13,255.63" transform="translate(-146.25 -58.07)"/><path class="cls-1" d="M333.13,346.61" transform="translate(-146.25 -58.07)"/><path class="cls-1" d="M333.15,297.63" transform="translate(-146.25 -58.07)"/><path class="cls-1" d="M286.13,255.63" transform="translate(-146.25 -58.07)"/><path class="cls-1" d="M333.15,297.63" transform="translate(-146.25 -58.07)"/><path class="cls-1" d="M380.13,255.63" transform="translate(-146.25 -58.07)"/><line class="cls-1" x1="187.27" y1="193.29" x2="186.88" y2="388.32"/><path class="cls-1" d="M286.13,255.63" transform="translate(-146.25 -58.07)"/></svg>